<svg width="98" height="98" viewBox="0 0 98 98" fill="none" xmlns="http://www.w3.org/2000/svg">
<path d="M47 14H51V39H47V14Z" fill="#9356DC"/>
<path d="M43 7H55V10C55 12.2091 53.2091 14 51 14H47C44.7909 14 43 12.2091 43 10V7Z" fill="#9356DC"/>
<path d="M43 0H45V7H43V0Z" fill="#9356DC"/>
<path d="M53 0H55V7H53V0Z" fill="#9356DC"/>
<path d="M48 0H50V7H48V0Z" fill="#9356DC"/>
<path d="M47 84H51V59H47V84Z" fill="#9356DC"/>
<path d="M43 91H55V88C55 85.7909 53.2091 84 51 84H47C44.7909 84 43 85.7909 43 88V91Z" fill="#9356DC"/>
<path d="M43 98H45V91H43V98Z" fill="#9356DC"/>
<path d="M53 98H55V91H53V98Z" fill="#9356DC"/>
<path d="M48 98H50V91H48V98Z" fill="#9356DC"/>
<path d="M14 51L14 47L39 47L39 51L14 51Z" fill="#9356DC"/>
<path d="M7 55L7 43L10 43C12.2091 43 14 44.7909 14 47L14 51C14 53.2091 12.2091 55 10 55H7Z" fill="#9356DC"/>
<path d="M0 55L0 53L7 53L7 55L0 55Z" fill="#9356DC"/>
<path d="M0 45L0 43H7L7 45H0Z" fill="#9356DC"/>
<path d="M0 50L0 48H7L7 50H0Z" fill="#9356DC"/>
<path d="M84 51V47L59 47L59 51L84 51Z" fill="#9356DC"/>
<path d="M91 55V43L88 43C85.7909 43 84 44.7909 84 47V51C84 53.2091 85.7909 55 88 55H91Z" fill="#9356DC"/>
<path d="M98 55V53L91 53V55L98 55Z" fill="#9356DC"/>
<path d="M98 45V43H91V45H98Z" fill="#9356DC"/>
<path d="M98 50V48H91V50H98Z" fill="#9356DC"/>
</svg>
