<svg width="16" height="15" viewBox="0 0 16 15" fill="none" xmlns="http://www.w3.org/2000/svg">
<path d="M11.5 0.5C10 0.5 8.7 1.4 8 2.6C7.3 1.4 6 0.5 4.5 0.5C2.3 0.5 0.5 2.3 0.5 4.5C0.5 5.2 0.7 5.9 1 6.5C3 10 8 14.5 8 14.5C8 14.5 13 10 15 6.5C15.3 5.9 15.5 5.2 15.5 4.5C15.5 2.3 13.7 0.5 11.5 0.5Z" fill="url(#paint0_linear_102_145)" stroke="url(#paint1_linear_102_145)" stroke-linejoin="round"/>
<defs>
<linearGradient id="paint0_linear_102_145" x1="8" y1="0.5" x2="8" y2="14.5" gradientUnits="userSpaceOnUse">
<stop stop-color="#9356DC"/>
<stop offset="1" stop-color="#FF79DA"/>
</linearGradient>
<linearGradient id="paint1_linear_102_145" x1="8" y1="0.5" x2="8" y2="14.5" gradientUnits="userSpaceOnUse">
<stop stop-color="#9356DC"/>
<stop offset="1" stop-color="#FF79DA"/>
</linearGradient>
</defs>
</svg>
