<svg width="14" height="13" viewBox="0 0 14 13" fill="none" xmlns="http://www.w3.org/2000/svg">
<path d="M13.8803 2.78006C13.7995 2.46429 13.675 2.16137 13.5103 1.88006C13.3526 1.58714 13.1502 1.3206 12.9103 1.09006C12.563 0.744585 12.1521 0.469536 11.7003 0.280058C10.7905 -0.0933526 9.77019 -0.0933526 8.86034 0.280058C8.43311 0.460896 8.04059 0.71468 7.70035 1.03006L7.65035 1.09006L7.00035 1.74006L6.35035 1.09006L6.30035 1.03006C5.9601 0.71468 5.56758 0.460896 5.14035 0.280058C4.2305 -0.0933526 3.21019 -0.0933526 2.30035 0.280058C1.84857 0.469536 1.43769 0.744585 1.09035 1.09006C0.615709 1.55189 0.279717 2.13728 0.120346 2.78006C0.0361527 3.10659 -0.00420166 3.44288 0.000345506 3.78006C0.000345506 4.09706 0.0403455 4.41306 0.120346 4.72006C0.204179 5.0301 0.32505 5.32892 0.480346 5.61006C0.648061 5.89907 0.853163 6.16469 1.09035 6.40006L7.00035 12.3101L12.9103 6.40006C13.1473 6.16706 13.3503 5.90006 13.5103 5.61006C13.8341 5.05474 14.0033 4.42287 14.0003 3.78006C14.0049 3.44288 13.9645 3.10659 13.8803 2.78006ZM12.8803 4.41006C12.7601 4.8668 12.5222 5.28402 12.1903 5.62006L6.98035 10.8201L1.77035 5.62006C1.60133 5.44841 1.4536 5.25703 1.33035 5.05006C1.21515 4.84474 1.12453 4.62657 1.06035 4.40006C1.00948 4.17351 0.982664 3.94223 0.980346 3.71006C0.982002 3.47124 1.00882 3.23326 1.06035 3.00006C1.12265 2.7729 1.21336 2.55451 1.33035 2.35006C1.45101 2.14006 1.59768 1.95006 1.77035 1.78006C2.02709 1.52642 2.32893 1.32294 2.66035 1.18006C3.32796 0.912981 4.07273 0.912981 4.74035 1.18006C5.07035 1.31706 5.36835 1.51806 5.62035 1.77006L6.98035 3.14006L8.34035 1.77006C8.59184 1.5172 8.89093 1.31668 9.22035 1.18006C9.88796 0.912981 10.6327 0.912981 11.3003 1.18006C11.6313 1.32306 11.9333 1.52706 12.1903 1.78006C12.3643 1.94506 12.5103 2.13706 12.6203 2.35006C12.8515 2.7587 12.9722 3.22056 12.9703 3.69006C12.984 3.93168 12.9638 4.17402 12.9103 4.41006H12.8803Z" fill="#101010"/>
</svg>
