<svg width="91" height="62" viewBox="0 0 91 62" fill="none" xmlns="http://www.w3.org/2000/svg">
<path d="M74.8043 11.3995L76.8885 14.8137L55.5502 27.8397L53.466 24.4256L74.8043 11.3995Z" fill="#99E2D0"/>
<path d="M74.0096 7.22556C76.7982 4.08281 81.1807 2.88536 85.1799 4.17348L85.6661 4.33009C87.3807 4.88235 88.433 6.60616 88.1406 8.38359L88.1033 8.60998C87.3984 12.8947 84.1464 16.3133 79.9022 17.2311C77.8492 17.675 75.7402 16.7712 74.6459 14.9785L73.488 13.0817C72.3559 11.2272 72.5675 8.8508 74.0096 7.22556Z" fill="#99E2D0"/>
<path d="M14.9236 14.6275L17.0076 11.2133L38.3464 24.2385L36.2624 27.6527L14.9236 14.6275Z" fill="#99E2D0"/>
<path d="M11.5743 17.2421C7.50452 16.1983 4.43638 12.8477 3.75418 8.7019L3.67124 8.19784C3.37876 6.42042 4.431 4.69658 6.14555 4.14426L6.36394 4.07391C10.4971 2.74248 15.0241 4.07246 17.7803 7.42791C19.1135 9.05092 19.2735 11.3398 18.1792 13.1326L17.0214 15.0294C15.8894 16.884 13.679 17.7819 11.5743 17.2421Z" fill="#99E2D0"/>
<path d="M76.8765 47.1517L74.7924 50.5659L53.4537 37.5406L55.5377 34.1264L76.8765 47.1517Z" fill="#99E2D0"/>
<path d="M80.2257 44.5371C84.2955 45.5809 87.3637 48.9315 88.0459 53.0773L88.1288 53.5813C88.4213 55.3588 87.3691 57.0826 85.6545 57.6349L85.4361 57.7053C81.303 59.0367 76.7759 57.7067 74.0197 54.3513C72.6866 52.7283 72.5265 50.4393 73.6208 48.6466L74.7787 46.7497C75.9107 44.8952 78.1211 43.9973 80.2257 44.5371Z" fill="#99E2D0"/>
<path d="M16.9957 50.8004L14.9116 47.3863L36.2499 34.3603L38.334 37.7744L16.9957 50.8004Z" fill="#99E2D0"/>
<path d="M17.7904 54.9744C15.0019 58.1172 10.6194 59.3146 6.62018 58.0265L6.13395 57.8699C4.41937 57.3176 3.36706 55.5938 3.65947 53.8164L3.69672 53.59C4.40162 49.3053 7.65369 45.8867 11.8979 44.9689C13.9508 44.525 16.0598 45.4288 17.1542 47.2215L18.3121 49.1183C19.4442 50.9728 19.2325 53.3492 17.7904 54.9744Z" fill="#99E2D0"/>
</svg>
