<svg width="60" height="88" viewBox="0 0 60 88" fill="none" xmlns="http://www.w3.org/2000/svg">
<path d="M10.082 15.2147L13.4779 13.101L26.6888 34.3252L23.2929 36.439L10.082 15.2147Z" fill="#FF79DA"/>
<path d="M2.68384 3.3291C5.49708 1.57801 9.19721 2.43906 10.9483 5.2523L17.2896 15.44C18.457 17.3155 17.8829 19.7822 16.0074 20.9496L14.3095 22.0065L2.68384 3.3291Z" fill="#FF79DA"/>
<path d="M49.9019 72.7144L46.506 74.8282L33.2951 53.6039L36.691 51.4901L49.9019 72.7144Z" fill="#FF79DA"/>
<path d="M57.3 84.6C54.4868 86.3511 50.7867 85.4901 49.0356 82.6768L42.6943 72.4891C41.5269 70.6136 42.101 68.1469 43.9765 66.9795L45.6744 65.9226L57.3 84.6Z" fill="#FF79DA"/>
<path d="M13.3981 75.0144L10.0023 72.9006L23.2132 51.6763L26.6091 53.7901L13.3981 75.0144Z" fill="#FF79DA"/>
<path d="M6 86.9C3.18676 85.1489 2.32571 81.4488 4.0768 78.6355L10.4181 68.4479C11.5855 66.5724 14.0522 65.9983 15.9277 67.1657L17.6256 68.2226L6 86.9Z" fill="#FF79DA"/>
<path d="M46.5418 13.0856L49.9377 15.1994L36.7267 36.4237L33.3308 34.3099L46.5418 13.0856Z" fill="#FF79DA"/>
<path d="M53.9399 1.20001C56.7532 2.9511 57.6142 6.65123 55.8631 9.46447L49.5219 19.6521C48.3545 21.5276 45.8877 22.1017 44.0122 20.9343L42.3143 19.8774L53.9399 1.20001Z" fill="#FF79DA"/>
</svg>
