<svg width="98" height="100" viewBox="0 0 98 100" fill="none" xmlns="http://www.w3.org/2000/svg">
<path d="M83.0044 27.1702L85.0886 30.5843L63.7503 43.6103L61.6662 40.1962L83.0044 27.1702Z" fill="#99E2D0"/>
<path d="M82.2098 22.9962C84.9983 19.8534 89.3808 18.656 93.38 19.9441L93.8662 20.1007C95.5808 20.653 96.6331 22.3768 96.3407 24.1542L96.3035 24.3806C95.5986 28.6653 92.3465 32.0839 88.1023 33.0017C86.0494 33.4457 83.9404 32.5418 82.846 30.7491L81.6881 28.8523C80.556 26.9978 80.7677 24.6214 82.2098 22.9962Z" fill="#99E2D0"/>
<path d="M12.1237 30.389L14.2078 26.9748L35.5465 40L33.4625 43.4142L12.1237 30.389Z" fill="#99E2D0"/>
<path d="M8.77448 33.0036C4.70467 31.9598 1.63653 28.6091 0.954325 24.4634L0.871381 23.9593C0.578902 22.1819 1.63114 20.458 3.3457 19.9057L3.56408 19.8354C7.69724 18.5039 12.2243 19.8339 14.9805 23.1894C16.3136 24.8124 16.4737 27.1013 15.3794 28.8941L14.2215 30.7909C13.0895 32.6455 10.8791 33.5433 8.77448 33.0036Z" fill="#99E2D0"/>
<path d="M85.0766 69.0723L82.9926 72.4865L61.6538 59.4613L63.7378 56.0471L85.0766 69.0723Z" fill="#99E2D0"/>
<path d="M88.4259 66.4577C92.4957 67.5015 95.5638 70.8521 96.246 74.9979L96.329 75.502C96.6214 77.2794 95.5692 79.0032 93.8546 79.5555L93.6363 79.6259C89.5031 80.9573 84.9761 79.6273 82.2199 76.2719C80.8867 74.6489 80.7267 72.36 81.821 70.5672L82.9788 68.6704C84.1108 66.8158 86.3212 65.9179 88.4259 66.4577Z" fill="#99E2D0"/>
<path d="M15.256 72.6411L13.1718 69.227L34.5101 56.2009L36.5942 59.6151L15.256 72.6411Z" fill="#99E2D0"/>
<path d="M16.0506 76.8151C13.2621 79.9578 8.87959 81.1553 4.88039 79.8671L4.39415 79.7105C2.67957 79.1583 1.62726 77.4345 1.91968 75.657L1.95692 75.4306C2.66182 71.1459 5.91389 67.7273 10.1581 66.8095C12.211 66.3656 14.32 67.2694 15.4144 69.0621L16.5723 70.9589C17.7044 72.8135 17.4927 75.1898 16.0506 76.8151Z" fill="#99E2D0"/>
<path d="M24.8983 14.0562L28.2942 11.9425L41.5052 33.1668L38.1093 35.2805L24.8983 14.0562Z" fill="#FF79DA"/>
<path d="M17.5002 2.17062C20.3134 0.419533 24.0136 1.28058 25.7647 4.09382L32.1059 14.2815C33.2733 16.157 32.6993 18.6237 30.8238 19.7911L29.1258 20.848L17.5002 2.17062Z" fill="#FF79DA"/>
<path d="M73.462 85.555L70.0661 87.6688L56.8552 66.4445L60.2511 64.3307L73.462 85.555Z" fill="#FF79DA"/>
<path d="M80.8601 97.4406C78.0469 99.1917 74.3468 98.3307 72.5957 95.5174L66.2544 85.3298C65.087 83.4543 65.6611 80.9875 67.5366 79.8201L69.2345 78.7633L80.8601 97.4406Z" fill="#FF79DA"/>
<path d="M28.2383 87.855L24.8424 85.7413L38.0534 64.517L41.4492 66.6307L28.2383 87.855Z" fill="#FF79DA"/>
<path d="M20.8401 99.7406C18.0269 97.9895 17.1659 94.2894 18.9169 91.4762L25.2582 81.2885C26.4256 79.413 28.8923 78.839 30.7678 80.0064L32.4658 81.0632L20.8401 99.7406Z" fill="#FF79DA"/>
<path d="M70.1021 11.9263L73.4979 14.04L60.287 35.2643L56.8911 33.1506L70.1021 11.9263Z" fill="#FF79DA"/>
<path d="M77.5002 0.0406494C80.3134 1.79174 81.1745 5.49187 79.4234 8.30511L73.0821 18.4928C71.9147 20.3683 69.448 20.9423 67.5725 19.7749L65.8745 18.718L77.5002 0.0406494Z" fill="#FF79DA"/>
<path d="M47.2004 15.8406H51.2004V40.8406H47.2004V15.8406Z" fill="#9356DC"/>
<path d="M43.2004 8.84063H55.2004V11.8406C55.2004 14.0498 53.4095 15.8406 51.2004 15.8406H47.2004C44.9913 15.8406 43.2004 14.0498 43.2004 11.8406V8.84063Z" fill="#9356DC"/>
<path d="M43.2004 1.84063H45.2004V8.84063H43.2004V1.84063Z" fill="#9356DC"/>
<path d="M53.2004 1.84063H55.2004V8.84063H53.2004V1.84063Z" fill="#9356DC"/>
<path d="M48.2004 1.84063H50.2004V8.84063H48.2004V1.84063Z" fill="#9356DC"/>
<path d="M47.2004 83.8406H51.2004V58.8406H47.2004V83.8406Z" fill="#9356DC"/>
<path d="M43.2004 90.8406H55.2004V87.8406C55.2004 85.6315 53.4095 83.8406 51.2004 83.8406H47.2004C44.9913 83.8406 43.2004 85.6315 43.2004 87.8406V90.8406Z" fill="#9356DC"/>
<path d="M43.2004 97.8406H45.2004V90.8406H43.2004V97.8406Z" fill="#9356DC"/>
<path d="M53.2004 97.8406H55.2004V90.8406H53.2004V97.8406Z" fill="#9356DC"/>
<path d="M48.2004 97.8406H50.2004V90.8406H48.2004V97.8406Z" fill="#9356DC"/>
<path d="M15.2004 51.8406V47.8406H40.2004V51.8406H15.2004Z" fill="#9356DC"/>
<path d="M8.20039 55.8406V43.8406H11.2004C13.4095 43.8406 15.2004 45.6315 15.2004 47.8406V51.8406C15.2004 54.0498 13.4095 55.8406 11.2004 55.8406H8.20039Z" fill="#9356DC"/>
<path d="M1.20039 55.8406V53.8406H8.20039V55.8406H1.20039Z" fill="#9356DC"/>
<path d="M1.20039 45.8406V43.8406H8.20039V45.8406H1.20039Z" fill="#9356DC"/>
<path d="M1.20039 50.8406V48.8406H8.20039V50.8406H1.20039Z" fill="#9356DC"/>
<path d="M83.2004 51.8406V47.8406H58.2004V51.8406H83.2004Z" fill="#9356DC"/>
<path d="M90.2004 55.8406V43.8406H87.2004C84.9912 43.8406 83.2004 45.6315 83.2004 47.8406V51.8406C83.2004 54.0498 84.9912 55.8406 87.2004 55.8406H90.2004Z" fill="#9356DC"/>
<path d="M97.2004 55.8406V53.8406H90.2004V55.8406H97.2004Z" fill="#9356DC"/>
<path d="M97.2004 45.8406V43.8406H90.2004V45.8406H97.2004Z" fill="#9356DC"/>
<path d="M97.2004 50.8406V48.8406H90.2004V50.8406H97.2004Z" fill="#9356DC"/>
</svg>
