<svg width="99" height="18" viewBox="0 0 99 18" fill="none" xmlns="http://www.w3.org/2000/svg">
<path d="M7.466 4.478C9.098 4.478 10.298 4.808 11.066 5.468C11.846 6.128 12.236 6.992 12.236 8.06C12.236 8.42 12.188 8.822 12.092 9.266C11.864 10.25 11.438 11.114 10.814 11.858C10.19 12.59 9.422 13.16 8.51 13.568C7.61 13.964 6.632 14.162 5.576 14.162C3.908 14.162 2.672 13.832 1.868 13.172C1.076 12.5 0.68 11.612 0.68 10.508C0.68 10.136 0.728 9.722 0.824 9.266C1.052 8.33 1.484 7.502 2.12 6.782C2.768 6.05 3.554 5.486 4.478 5.09C5.414 4.682 6.41 4.478 7.466 4.478ZM7.412 6.08C7.16 6.08 6.89 6.308 6.602 6.764C6.326 7.208 5.996 8.054 5.612 9.302C5.228 10.55 5.036 11.426 5.036 11.93C5.036 12.194 5.078 12.374 5.162 12.47C5.246 12.554 5.36 12.596 5.504 12.596C5.756 12.62 6.014 12.404 6.278 11.948C6.554 11.492 6.896 10.604 7.304 9.284C7.676 8.12 7.862 7.274 7.862 6.746C7.862 6.494 7.82 6.32 7.736 6.224C7.664 6.128 7.556 6.08 7.412 6.08ZM22.9949 11.516C22.9709 11.564 22.9589 11.636 22.9589 11.732C22.9589 11.816 22.9769 11.882 23.0129 11.93C23.0609 11.978 23.1209 12.002 23.1929 12.002C23.3369 12.002 23.4569 11.942 23.5529 11.822C23.6609 11.69 23.7329 11.624 23.7689 11.624C23.8289 11.624 23.8769 11.666 23.9129 11.75C23.9489 11.822 23.9669 11.912 23.9669 12.02C23.9789 12.368 23.8649 12.71 23.6249 13.046C23.3849 13.37 23.0309 13.64 22.5629 13.856C22.1069 14.06 21.5549 14.162 20.9069 14.162C20.1149 14.162 19.4849 13.982 19.0169 13.622C18.5489 13.25 18.3089 12.758 18.2969 12.146C18.2969 11.702 18.4049 11.204 18.6209 10.652L19.6109 8.06C19.6709 7.904 19.7009 7.778 19.7009 7.682C19.7009 7.526 19.6469 7.406 19.5389 7.322C19.4429 7.226 19.3229 7.178 19.1789 7.178C18.9509 7.178 18.7169 7.286 18.4769 7.502C18.2489 7.706 18.0629 8.042 17.9189 8.51V8.474L16.7849 12.128C16.7489 12.272 16.7309 12.398 16.7309 12.506C16.7309 12.662 16.7609 12.788 16.8209 12.884C16.8809 12.968 16.9649 13.052 17.0729 13.136C17.1569 13.22 17.2169 13.292 17.2529 13.352C17.2889 13.4 17.2949 13.466 17.2709 13.55C17.2109 13.706 17.0909 13.82 16.9109 13.892C16.7309 13.964 16.4549 14 16.0829 14H11.9789C11.6669 14 11.4389 13.952 11.2949 13.856C11.1509 13.748 11.1029 13.61 11.1509 13.442C11.1989 13.298 11.3249 13.172 11.5289 13.064C11.7089 12.968 11.8589 12.854 11.9789 12.722C12.0989 12.59 12.2009 12.38 12.2849 12.092L15.0209 3.11C15.0569 3.002 15.0749 2.912 15.0749 2.84C15.0749 2.708 15.0389 2.6 14.9669 2.516C14.9069 2.432 14.8229 2.348 14.7149 2.264C14.5949 2.168 14.5049 2.084 14.4449 2.012C14.3969 1.94 14.3909 1.844 14.4269 1.724C14.4989 1.448 14.8769 1.208 15.5609 1.004C16.2449 0.799999 16.9589 0.698 17.7029 0.698C18.3989 0.698 18.9089 0.83 19.2329 1.094C19.5689 1.358 19.7369 1.718 19.7369 2.174C19.7369 2.438 19.6949 2.696 19.6109 2.948L18.6389 6.116C19.1069 5.504 19.5989 5.078 20.1149 4.838C20.6429 4.598 21.2129 4.478 21.8249 4.478C22.5569 4.478 23.1449 4.7 23.5889 5.144C24.0449 5.588 24.2729 6.164 24.2729 6.872C24.2729 7.244 24.2129 7.61 24.0929 7.97L22.9949 11.516ZM41.8582 11.516C41.8342 11.564 41.8222 11.636 41.8222 11.732C41.8222 11.816 41.8402 11.882 41.8762 11.93C41.9242 11.978 41.9842 12.002 42.0562 12.002C42.2002 12.002 42.3202 11.942 42.4162 11.822C42.5242 11.69 42.5962 11.624 42.6322 11.624C42.6922 11.624 42.7402 11.666 42.7762 11.75C42.8122 11.822 42.8302 11.912 42.8302 12.02C42.8422 12.368 42.7282 12.71 42.4882 13.046C42.2482 13.37 41.8942 13.64 41.4262 13.856C40.9702 14.06 40.4182 14.162 39.7702 14.162C38.9782 14.162 38.3482 13.982 37.8802 13.622C37.4122 13.25 37.1722 12.758 37.1602 12.146C37.1602 11.702 37.2682 11.204 37.4842 10.652L38.4742 8.06C38.5342 7.904 38.5642 7.778 38.5642 7.682C38.5642 7.526 38.5102 7.406 38.4022 7.322C38.3062 7.226 38.1862 7.178 38.0422 7.178C37.8382 7.178 37.6282 7.268 37.4122 7.448C37.1962 7.628 37.0042 7.91 36.8362 8.294L35.8462 11.516C35.8222 11.564 35.8102 11.636 35.8102 11.732C35.8102 11.816 35.8282 11.882 35.8642 11.93C35.9122 11.978 35.9722 12.002 36.0442 12.002C36.1882 12.002 36.3082 11.942 36.4042 11.822C36.5122 11.69 36.5842 11.624 36.6202 11.624C36.6802 11.624 36.7282 11.666 36.7642 11.75C36.8002 11.822 36.8182 11.912 36.8182 12.02C36.8302 12.368 36.7162 12.71 36.4762 13.046C36.2362 13.37 35.8822 13.64 35.4142 13.856C34.9582 14.06 34.4062 14.162 33.7582 14.162C32.9662 14.162 32.3362 13.982 31.8682 13.622C31.4002 13.25 31.1602 12.758 31.1482 12.146C31.1482 11.702 31.2562 11.204 31.4722 10.652L32.4622 8.06C32.5222 7.904 32.5522 7.778 32.5522 7.682C32.5522 7.526 32.4982 7.406 32.3902 7.322C32.2942 7.226 32.1742 7.178 32.0302 7.178C31.8262 7.178 31.6162 7.268 31.4002 7.448C31.1842 7.616 31.0042 7.892 30.8602 8.276L29.6722 12.128C29.6242 12.26 29.6002 12.386 29.6002 12.506C29.6002 12.65 29.6302 12.77 29.6902 12.866C29.7502 12.95 29.8342 13.04 29.9422 13.136C30.0262 13.208 30.0862 13.274 30.1222 13.334C30.1582 13.394 30.1642 13.466 30.1402 13.55C30.0922 13.706 29.9782 13.82 29.7982 13.892C29.6182 13.964 29.3362 14 28.9522 14H24.8482C24.5362 14 24.3142 13.952 24.1822 13.856C24.0382 13.748 23.9842 13.61 24.0202 13.442C24.0682 13.298 24.1942 13.172 24.3982 13.064C24.5782 12.968 24.7282 12.854 24.8482 12.722C24.9682 12.59 25.0702 12.38 25.1542 12.092L26.7562 6.89C26.7802 6.83 26.7922 6.746 26.7922 6.638C26.7922 6.506 26.7622 6.404 26.7022 6.332C26.6542 6.26 26.5702 6.17 26.4502 6.062C26.3302 5.966 26.2462 5.882 26.1982 5.81C26.1502 5.738 26.1442 5.642 26.1802 5.522C26.2522 5.246 26.6302 5.006 27.3142 4.802C27.9982 4.586 28.7122 4.478 29.4562 4.478C30.0442 4.478 30.5062 4.64 30.8422 4.964C31.1902 5.288 31.3582 5.732 31.3462 6.296C31.8382 5.612 32.3542 5.138 32.8942 4.874C33.4462 4.61 34.0402 4.478 34.6762 4.478C35.3722 4.478 35.9362 4.682 36.3682 5.09C36.8122 5.486 37.0582 6.008 37.1062 6.656C37.6222 5.84 38.1742 5.276 38.7622 4.964C39.3502 4.64 39.9922 4.478 40.6882 4.478C41.4202 4.478 42.0082 4.7 42.4522 5.144C42.9082 5.588 43.1362 6.164 43.1362 6.872C43.1362 7.244 43.0762 7.61 42.9562 7.97L41.8582 11.516ZM52.9658 4.478C53.4938 4.478 53.9138 4.694 54.2258 5.126C54.5498 5.546 54.7118 6.122 54.7118 6.854C54.7118 7.49 54.5978 8.174 54.3698 8.906C53.9258 10.382 53.2118 11.774 52.2278 13.082C51.2558 14.39 50.1338 15.44 48.8618 16.232C47.6018 17.024 46.3418 17.42 45.0818 17.42C44.4578 17.42 43.9178 17.312 43.4618 17.096C43.0178 16.88 42.6818 16.592 42.4538 16.232C42.2138 15.872 42.0938 15.488 42.0938 15.08C42.0938 14.9 42.1238 14.702 42.1838 14.486C42.2918 14.15 42.4718 13.892 42.7238 13.712C42.9758 13.532 43.2758 13.442 43.6238 13.442C44.1758 13.442 44.6258 13.628 44.9738 14C45.3338 14.384 45.5618 14.906 45.6578 15.566C46.4258 15.53 47.1338 15.2 47.7818 14.576C47.1698 14.468 46.7138 14.264 46.4138 13.964C46.1258 13.652 45.9278 13.172 45.8198 12.524L45.0998 8.114C45.0638 7.886 45.0098 7.73 44.9378 7.646C44.8778 7.55 44.7938 7.502 44.6858 7.502C44.6018 7.502 44.4998 7.544 44.3798 7.628C44.2718 7.712 44.1938 7.754 44.1458 7.754C44.0498 7.754 44.0018 7.652 44.0018 7.448C44.0018 7.28 44.0318 7.1 44.0918 6.908C44.3078 6.224 44.7098 5.648 45.2978 5.18C45.8858 4.7 46.5698 4.46 47.3498 4.46C48.1178 4.46 48.6818 4.688 49.0418 5.144C49.4138 5.6 49.6538 6.302 49.7618 7.25L50.3018 11.21C50.3378 11.51 50.4458 11.66 50.6258 11.66C50.8418 11.66 51.0938 11.468 51.3818 11.084C51.6698 10.688 51.9518 10.13 52.2278 9.41C51.8678 9.086 51.5918 8.714 51.3998 8.294C51.2078 7.874 51.1118 7.424 51.1118 6.944C51.1118 6.572 51.1598 6.236 51.2558 5.936C51.3998 5.456 51.6218 5.096 51.9218 4.856C52.2338 4.604 52.5818 4.478 52.9658 4.478ZM61.9319 0.698C63.2159 0.698 64.1759 0.896 64.8119 1.292C65.4599 1.676 65.7839 2.15 65.7839 2.714C65.7839 3.17 65.5919 3.524 65.2079 3.776C64.8359 4.016 64.3439 4.136 63.7319 4.136C63.1679 4.136 62.7299 3.998 62.4179 3.722C62.1059 3.446 61.9499 3.104 61.9499 2.696C61.9499 2.444 62.0279 2.18 62.1839 1.904C61.8239 1.904 61.5239 1.994 61.2839 2.174C61.0439 2.342 60.8579 2.636 60.7259 3.056C60.6539 3.32 60.6179 3.566 60.6179 3.794C60.6179 4.082 60.6659 4.31 60.7619 4.478C60.8699 4.634 61.0199 4.712 61.2119 4.712H62.2739C62.8979 4.712 63.2099 4.904 63.2099 5.288C63.2099 5.336 63.1979 5.408 63.1739 5.504C63.1019 5.768 62.9519 5.966 62.7239 6.098C62.5079 6.23 62.1779 6.296 61.7339 6.296H61.1939L59.4119 12.128C59.3759 12.272 59.3579 12.398 59.3579 12.506C59.3579 12.662 59.3879 12.788 59.4479 12.884C59.5079 12.968 59.5919 13.052 59.6999 13.136C59.7839 13.22 59.8439 13.292 59.8799 13.352C59.9159 13.4 59.9219 13.466 59.8979 13.55C59.8379 13.706 59.7179 13.82 59.5379 13.892C59.3579 13.964 59.0819 14 58.7099 14H54.6059C54.2939 14 54.0659 13.952 53.9219 13.856C53.7779 13.748 53.7299 13.61 53.7779 13.442C53.8259 13.298 53.9519 13.172 54.1559 13.064C54.3359 12.968 54.4859 12.854 54.6059 12.722C54.7259 12.59 54.8279 12.38 54.9119 12.092L56.3159 7.484C56.3759 7.304 56.4059 7.118 56.4059 6.926C56.4059 6.686 56.3519 6.5 56.2439 6.368C56.1479 6.224 55.9979 6.068 55.7939 5.9C55.6619 5.792 55.5599 5.702 55.4879 5.63C55.4279 5.546 55.3979 5.45 55.3979 5.342C55.3859 5.114 55.4639 4.952 55.6319 4.856C55.8119 4.76 56.1479 4.712 56.6399 4.712H57.0899C57.0059 4.412 56.9639 4.112 56.9639 3.812C56.9639 3.512 57.0179 3.2 57.1259 2.876C57.3539 2.264 57.8399 1.748 58.5839 1.328C59.3399 0.907999 60.4559 0.698 61.9319 0.698ZM69.0422 4.478C70.6742 4.478 71.8742 4.808 72.6422 5.468C73.4222 6.128 73.8122 6.992 73.8122 8.06C73.8122 8.42 73.7642 8.822 73.6682 9.266C73.4402 10.25 73.0142 11.114 72.3902 11.858C71.7662 12.59 70.9982 13.16 70.0862 13.568C69.1862 13.964 68.2082 14.162 67.1522 14.162C65.4842 14.162 64.2482 13.832 63.4442 13.172C62.6522 12.5 62.2562 11.612 62.2562 10.508C62.2562 10.136 62.3042 9.722 62.4002 9.266C62.6282 8.33 63.0602 7.502 63.6962 6.782C64.3442 6.05 65.1302 5.486 66.0542 5.09C66.9902 4.682 67.9862 4.478 69.0422 4.478ZM68.9882 6.08C68.7362 6.08 68.4662 6.308 68.1782 6.764C67.9022 7.208 67.5722 8.054 67.1882 9.302C66.8042 10.55 66.6122 11.426 66.6122 11.93C66.6122 12.194 66.6542 12.374 66.7382 12.47C66.8222 12.554 66.9362 12.596 67.0802 12.596C67.3322 12.62 67.5902 12.404 67.8542 11.948C68.1302 11.492 68.4722 10.604 68.8802 9.284C69.2522 8.12 69.4382 7.274 69.4382 6.746C69.4382 6.494 69.3962 6.32 69.3122 6.224C69.2402 6.128 69.1322 6.08 68.9882 6.08ZM80.8547 4.478C82.4867 4.478 83.6867 4.808 84.4547 5.468C85.2347 6.128 85.6247 6.992 85.6247 8.06C85.6247 8.42 85.5767 8.822 85.4807 9.266C85.2527 10.25 84.8267 11.114 84.2027 11.858C83.5787 12.59 82.8107 13.16 81.8987 13.568C80.9987 13.964 80.0207 14.162 78.9647 14.162C77.2967 14.162 76.0607 13.832 75.2567 13.172C74.4647 12.5 74.0687 11.612 74.0687 10.508C74.0687 10.136 74.1167 9.722 74.2127 9.266C74.4407 8.33 74.8727 7.502 75.5087 6.782C76.1567 6.05 76.9427 5.486 77.8667 5.09C78.8027 4.682 79.7987 4.478 80.8547 4.478ZM80.8007 6.08C80.5487 6.08 80.2787 6.308 79.9907 6.764C79.7147 7.208 79.3847 8.054 79.0007 9.302C78.6167 10.55 78.4247 11.426 78.4247 11.93C78.4247 12.194 78.4667 12.374 78.5507 12.47C78.6347 12.554 78.7487 12.596 78.8927 12.596C79.1447 12.62 79.4027 12.404 79.6667 11.948C79.9427 11.492 80.2847 10.604 80.6927 9.284C81.0647 8.12 81.2507 7.274 81.2507 6.746C81.2507 6.494 81.2087 6.32 81.1247 6.224C81.0527 6.128 80.9447 6.08 80.8007 6.08ZM95.7632 11.408C95.7392 11.504 95.7272 11.57 95.7272 11.606C95.7272 11.69 95.7512 11.756 95.7992 11.804C95.8472 11.852 95.9072 11.876 95.9792 11.876C96.1232 11.876 96.2432 11.816 96.3392 11.696C96.4472 11.564 96.5192 11.498 96.5552 11.498C96.6152 11.498 96.6632 11.54 96.6992 11.624C96.7352 11.708 96.7532 11.804 96.7532 11.912C96.7652 12.236 96.6392 12.566 96.3752 12.902C96.1232 13.238 95.7812 13.514 95.3492 13.73C94.9172 13.946 94.4492 14.054 93.9452 14.054C93.3452 14.054 92.8232 13.94 92.3792 13.712C91.9352 13.484 91.6292 13.184 91.4612 12.812C91.1372 13.232 90.7652 13.544 90.3452 13.748C89.9252 13.952 89.4812 14.054 89.0132 14.054C88.4612 14.054 87.9452 13.916 87.4652 13.64C86.9972 13.364 86.6192 12.974 86.3312 12.47C86.0552 11.954 85.9172 11.372 85.9172 10.724C85.9172 9.632 86.1212 8.606 86.5292 7.646C86.9492 6.674 87.5312 5.894 88.2752 5.306C89.0192 4.706 89.8652 4.406 90.8132 4.406C91.3292 4.406 91.7672 4.466 92.1272 4.586C92.4992 4.706 92.8352 4.886 93.1352 5.126L93.7472 3.11C93.7832 3.002 93.8012 2.912 93.8012 2.84C93.8012 2.708 93.7652 2.6 93.6932 2.516C93.6332 2.432 93.5492 2.348 93.4412 2.264C93.3212 2.168 93.2312 2.084 93.1712 2.012C93.1232 1.94 93.1172 1.844 93.1532 1.724C93.2252 1.448 93.6032 1.208 94.2872 1.004C94.9712 0.799999 95.6852 0.698 96.4292 0.698C97.1252 0.698 97.6352 0.83 97.9592 1.094C98.2952 1.358 98.4632 1.718 98.4632 2.174C98.4632 2.438 98.4212 2.696 98.3372 2.948L95.7632 11.408ZM92.7572 6.35C92.5652 6.182 92.3552 6.098 92.1272 6.098C91.7792 6.098 91.4372 6.356 91.1012 6.872C90.7652 7.388 90.4952 8.012 90.2912 8.744C90.0872 9.476 89.9912 10.136 90.0032 10.724C90.0032 11.384 90.2192 11.714 90.6512 11.714C90.8072 11.714 90.9392 11.654 91.0472 11.534C91.1552 11.402 91.2572 11.192 91.3532 10.904L92.7572 6.35Z" fill="white"/>
</svg>
